<svg width="2093" height="695" viewBox="0 0 2093 695" fill="none" xmlns="http://www.w3.org/2000/svg">
<g clip-path="url(#clip0_0_3)">
<path d="M26.52 197.44C41.0267 169.893 70.1067 149.773 101.64 149.04C190.547 148.947 279.453 149.013 368.36 149.013C391.12 148.533 414.24 157.013 430.587 173.013C448.387 189.587 458.56 213.64 458.707 237.893C458.733 308.187 458.667 378.467 458.72 448.76C458.12 479.387 450.773 509.627 438.787 537.747C429.8 558.627 418.253 578.467 403.773 596.027C393.08 608.12 382.24 620.24 369.56 630.32C360.573 594.813 335.427 564.747 304.28 546.187C284.12 534.427 260.867 528.693 237.613 528.28C193.613 528.707 149.613 551.333 126.04 588.92C117.387 601.4 110.48 615.267 107.147 630.147C91.9467 619.413 79.0934 605.56 67.2667 591.24C35.36 549.427 16.96 497.293 16.1067 444.653C16.1734 377.533 16.0667 310.413 16.2134 243.293C15.88 227.453 19.6934 211.693 26.52 197.44ZM294.24 200.253C286.547 216.747 280.573 233.973 273.707 250.827C267.707 234.88 261.013 219.213 254.92 203.307C254.4 201.667 253.2 199.747 251.12 200.333C244.187 200.253 237.253 200.373 230.32 200.253C228.293 224.093 225.96 247.907 223.413 271.707C221.68 272.2 219.96 272.693 218.227 273.187C218.253 279.293 218.187 285.413 218.4 291.52C224.907 291.307 231.413 291.667 237.92 291.36C241.493 291.253 245.52 289.213 245.827 285.253C246.813 270.227 248.347 255.2 249.333 240.2C253.987 252.347 259.027 264.387 264.307 276.267C270.293 277.88 276.96 276.533 283.213 276.907C288.773 264.813 293.707 252.427 298.467 240.013C299.56 255.56 300.213 271.147 301.467 286.68C301.987 289.733 305.36 291.187 308.147 291.36C314.773 291.64 321.413 291.48 328.04 291.373C328.12 285.373 328.147 279.36 328.147 273.36C326.173 272.587 322.293 272.867 322.48 269.88C320.32 246.667 318.52 223.413 315.92 200.253C308.693 200.307 301.467 200.373 294.24 200.253ZM364.973 200.24C355.813 223.347 347.907 246.96 339.013 270.16C338.293 272.68 335.24 272.28 333.28 273.093C333.107 279.227 333.227 285.373 333.28 291.507C338.787 291.4 344.307 291.587 349.813 291.453C353.173 291.347 356.667 289.187 357.533 285.813C359.187 281.107 360.507 276.307 362.213 271.627C371.08 271.56 379.947 271.747 388.813 271.667C391.253 277.147 391.88 283.453 395.2 288.507C401.627 293.853 410.773 290.587 418.387 291.44C418.413 285.373 418.32 279.307 418.333 273.253C415.853 272.547 412.6 272.453 411.773 269.467C403.627 246.413 394.4 223.707 386.947 200.413C379.627 200.28 372.293 200.52 364.973 200.24ZM65.2 210.747C58.36 218.853 57.6134 231.307 63.2934 240.24C69.1867 249.053 79.5334 253.12 88.9334 257.08C93.68 259.24 99.76 260.533 102.16 265.747C102.627 269.787 98.64 272.467 95.0934 273C86.5067 273.973 77.52 270.32 72.1867 263.48C67.3467 268.093 62.4134 272.64 57.8934 277.573C68.08 288.867 83.7733 294.827 98.8667 292.413C107.333 290.96 116.373 287.573 121.08 279.907C127.707 270.693 126.613 257 118.96 248.733C110.64 239.733 98.1467 237.293 87.52 232.16C83.64 230.653 81.8534 225.547 84.2667 222.107C88.7467 217.987 96.6534 217.813 100.92 222.333C102.893 223.653 101.56 226.173 101.56 228.053C108.48 228.533 115.48 229.4 122.387 228.387C122.12 222.467 123.44 215.84 119.707 210.707C113.813 202.547 103.347 199.573 93.7467 199.013C83.28 199.12 71.9467 202.213 65.2 210.747ZM132.493 220C134.587 220.013 136.667 220.04 138.76 220.067C139.147 222.04 139.453 224.027 139.44 226.053C139.387 247.813 139.427 269.573 139.413 291.32C146.987 291.627 154.56 291.413 162.12 291.173C162.107 279.293 162.253 267.413 162.173 255.533C165.52 256.08 170.467 254.187 172.493 257.747C178.28 267.307 182.36 277.853 188.467 287.213C194.947 293.853 205.147 290.84 213.387 291.493C213.44 285.347 213.4 279.213 213.453 273.067C210.693 272.493 207.16 273.067 205.2 270.613C199.307 262.747 197.16 252.213 189.533 245.68C194.053 242.293 195.413 236.533 198.2 231.88C203.28 221.307 209.507 211.267 213.867 200.36C205.8 200.387 197.72 200.347 189.653 200.333C183.32 212.467 177.867 225.08 171.013 236.92C168.093 236.933 165.173 236.933 162.253 236.947C161.947 227.04 162.36 217.133 162.107 207.24C162.013 203.027 157.707 200.147 153.747 200.387C146.773 200.293 139.787 200.453 132.8 200.267C132.453 206.84 132.693 213.413 132.493 220ZM205.493 325.947C198.413 331.76 198.693 344.12 205.827 349.773C210.413 353.213 216.6 353.8 221.853 351.547C219.813 357.96 212.213 360.933 206.453 357.253C205.133 360.227 203.96 363.253 202.773 366.28C209.013 369.573 216.92 369.427 223.04 365.92C235.387 357.933 238.12 338.347 228.28 327.36C222.72 320.88 211.853 320.467 205.493 325.947ZM279.56 327.92C274.88 333.613 275.133 342.28 279.84 347.88C282.427 351.44 286.92 352.253 290.973 353.013C293.227 352.427 295.48 351.893 297.773 351.44C296.453 354.453 294.173 357.04 291.187 358.467C287.933 359.28 284.707 358.027 281.613 357.187C280.573 360.307 279.387 363.373 278.08 366.387C285.2 369.867 294.227 370.08 300.6 364.907C308.173 358.373 310.547 347.453 309.133 337.867C307.8 331.693 304.053 325.48 297.907 323.173C291.613 321.053 283.68 322.333 279.56 327.92ZM165.187 334.227C167.213 336.453 169.293 338.64 171.373 340.84C173 339.613 174.6 338.347 176.2 337.093C176.16 344.267 176.28 351.467 176.133 358.653C173 358.68 169.867 358.707 166.747 358.747C166.747 361.84 166.747 364.947 166.72 368.053C176.88 368.093 187.027 368.013 197.187 368.067C197.213 364.947 197.213 361.827 197.213 358.72C193.92 358.667 190.627 358.627 187.347 358.56C187.24 346.64 187.253 334.72 187.333 322.8C183.96 322.813 180.587 322.813 177.213 322.8C173.213 326.627 169.227 330.453 165.187 334.227ZM239.347 336.12C242.573 336.173 245.813 336.2 249.053 336.253C249.053 335.253 249.067 333.253 249.08 332.253C252.84 332.253 256.6 332.253 260.373 332.253C254.52 344.64 246.307 355.76 240.04 367.933C244.2 367.987 248.36 368.027 252.52 368.08C259.04 356.587 265.107 344.84 271.893 333.507C273.987 330.347 272.96 326.387 273.093 322.84C261.907 322.773 250.72 322.893 239.533 322.867C239.413 327.28 239.387 331.693 239.347 336.12ZM110.72 344.053C110.707 347.213 110.68 350.373 110.627 353.547C123.387 353.88 136.16 353.507 148.933 353.68C148.987 350.44 149.013 347.213 149.013 343.987C136.24 343.933 123.48 343.987 110.72 344.053ZM325.867 344.053C325.84 347.253 325.813 350.467 325.787 353.68C338.787 353.707 351.773 353.533 364.773 353.747C364.8 350.493 364.787 347.24 364.747 344C351.787 343.92 338.827 343.96 325.867 344.053ZM229.92 405.12C229.987 408.96 229.693 412.8 229.493 416.64C230.133 439.747 228.88 462.893 229.787 486.027C229.493 492.773 228.88 499.6 230.173 506.28C235.067 506.04 240.08 506.8 244.867 505.467C244.747 472.027 244.76 438.587 244.827 405.16C239.853 405.12 234.893 405.107 229.92 405.12ZM286.053 455.773C281.16 472.48 276.293 489.213 271.76 506.04C276.653 507.04 281.387 508.707 286.187 510.107C290.72 493.187 295.933 476.453 300.28 459.493C295.52 458.307 290.907 456.533 286.053 455.773ZM176.653 459.707C181.333 476.44 185.72 493.253 190.333 510.013C195.24 508.893 200.027 507.32 204.92 506.173C200.267 489.347 195.613 472.52 191.147 455.653C186.333 457.04 181.48 458.333 176.653 459.707ZM135.213 500.213C141.253 509.6 146.72 519.387 153.133 528.52C157.16 525.76 161.293 523.16 165.507 520.72C159.227 511.587 153.587 502.027 147.933 492.507C143.48 494.72 139.213 497.267 135.213 500.213ZM327.787 492.547C321.987 502.027 315.853 511.307 309.88 520.68C314.107 523 318.267 525.44 322.147 528.333C328.827 519.373 334.333 509.627 340.533 500.36C336.52 497.4 332.307 494.667 327.787 492.547ZM97.6267 537.92C105.4 544.773 112.667 552.173 120.413 559.053C123.84 555.52 127.107 551.827 130.613 548.387C123.427 540.827 115.493 534.013 108.307 526.453C104.627 530.16 101.013 533.933 97.6267 537.92ZM345.84 547.507C349.267 551.373 352.72 555.253 356.227 559.067C363.84 552.133 371 544.72 378.707 537.88C375.547 533.987 372.28 530.173 368.76 526.6C360.88 533.307 353.707 540.787 345.84 547.507ZM70.96 563.96C68.92 568.493 66.1067 572.72 64.6667 577.507C73.4934 582.107 82.48 586.413 91.32 591.013C93.8267 586.707 95.76 582.107 98.3467 577.867C89.3333 573 80.2267 568.307 70.96 563.96ZM379.12 577.72C381.12 582.027 382.88 586.44 384.387 590.947C393.187 586.8 401.947 582.56 410.587 578.093C408.693 573.44 406.307 569 404.253 564.413C395.56 568.2 387.187 572.747 379.12 577.72Z" fill="#FEFEFE"/>
<path d="M376.08 225.533C378.72 235.307 381.413 245.067 384.213 254.8C378.627 254.827 373.027 254.827 367.44 254.613C370.867 245.08 373.44 235.293 376.08 225.533Z" fill="#FEFEFE"/>
<path d="M212.827 333.093C218.587 328.16 225.893 338.667 221.587 343.467C218.107 344.987 213.16 344.2 211.413 340.533C211.12 338.08 210.427 334.733 212.827 333.093Z" fill="#FEFEFE"/>
<path d="M288.787 333.12C294.707 328.293 301.973 338.507 297.667 343.4C294.187 345.133 289 344.333 287.387 340.427C286.013 338.013 286.56 334.813 288.787 333.12Z" fill="#FEFEFE"/>
<path d="M221.333 544.867C238.293 542.027 255.707 544.187 272.213 548.507C295.333 555.4 315.813 569.787 331.493 587.973C344.093 602.867 353.373 621 356.427 640.373C335.147 654.707 311.787 666.347 286.813 672.587C241.933 684.307 193.12 678.947 151.36 659C140.107 653.987 129.693 647.347 119.387 640.64C124.48 617.36 135.827 595.267 152.867 578.48C171.333 560.4 195.667 548.24 221.333 544.867Z" fill="#FEFEFE"/>
<path d="M199.387 22.2267C202.947 12.2667 211.467 4.98666 220.4 -0.17334C222.893 1.30666 224.907 3.4 226.387 5.88001C224.653 9.25334 223.253 12.84 222.907 16.6533C221.32 38.5067 233.293 58.84 231.467 80.72C229.253 99.5467 220.453 116.987 209.213 132.027C229.013 132.187 248.813 132.053 268.613 132.12C262.24 123.733 255.453 115.467 251.267 105.693C246.52 95.3467 243.973 83.9867 244.28 72.6C245 61.7467 248.107 51.2933 250.867 40.84C253.107 32.5733 253.467 23.9467 253 15.44C252.92 12.0667 250.773 9.25333 250.2 6.01333C250.853 2.95999 253.947 1.45334 256.293 -0.159993C265.173 4.53334 272.92 11.9067 277.213 21.0667C279.92 26.76 279.507 33.2133 278.547 39.2667C282.853 38.4267 287.52 36.6133 291.76 38.7333C295.147 39.96 298.627 43.76 296.76 47.52C291.893 53.4267 285.827 59.88 286.533 68.1333C296.067 67.04 306.213 69.0267 313.693 75.32C324.267 83.8 329.12 99.9867 322.56 112.307C316.907 123.773 302.187 130.92 290 125.8C284.227 123.667 278.36 118.267 279.307 111.573C279.373 108.013 283.693 105.52 286.84 107.16C290.307 108.653 290.333 113.653 294.093 114.88C303.72 119.413 315.293 109.28 314.547 99.24C314.267 87.52 302.507 77.5867 290.933 79.3733C278.307 80.84 267.76 93.1733 269.04 105.973C269.84 114.213 275.12 121.293 281.4 126.36C284.68 128.747 287.947 132.253 292.32 132.08C315.92 132.04 339.52 132.173 363.12 132.027C372.133 130.733 380.133 125.093 385.707 118.04C393.013 110.733 399.853 100.947 398.147 90.0667C397.347 79.0267 388.933 68.3467 377.653 66.84C367.947 65.4667 357.813 74.48 359.627 84.5067C360.347 89.5333 364.48 93.5733 369.613 93.8133C371.853 96.2533 373.053 100.187 370.733 102.987C367.32 107.653 360.627 105.627 356.547 103.027C347.493 96.8 344.053 84.32 347.453 74.04C351.667 59.2533 368.853 50.12 383.533 54.4533C401.293 58.9733 412.88 77.6 411.733 95.4533C424.213 89.7867 438.84 89.44 451.507 94.7733C458.107 97.7467 465.387 100.773 469.413 107.16C468.347 110.773 466.787 116.213 461.827 115.173C457.893 113.013 454.72 109.613 450.507 107.92C438.573 102.853 424.2 102.693 412.693 109C406.507 112.44 402.56 118.547 398.16 123.88C395.2 127.52 390.88 129.853 388.413 133.92C408.187 136.613 426.493 146.427 441 159.96C462.6 179.68 474.707 208.88 474.733 238.013C474.667 309.133 474.773 380.267 474.653 451.387C472.987 507.507 451.96 562.72 416.667 606.293C396.88 630.2 373.213 651.173 345.88 666.027C323.787 678.613 299.333 686.813 274.4 691.52C228.387 699.507 180.12 691.467 138.4 670.747C104.933 653.693 75.5733 628.773 52.8667 598.893C20.4 556.8 1.93333 504.32 -0.253334 451.293C-0.346667 381.52 -0.213329 311.747 -0.279996 241.987C-0.626663 215.893 8.72 189.787 25.6667 169.947C41.32 151.107 63.7333 137.747 88 133.853C84.6133 129.853 80.64 126.4 77.44 122.253C73.5867 117.68 70.4 112.28 65.08 109.187C51.0267 101.173 31.96 102.333 19.64 113.12C15.8933 117.4 9.22667 113.747 8.89333 108.667C8.13333 106.56 10.6267 105.347 11.7067 103.96C25.8533 91.16 47.4533 87.12 64.9733 95.12C64.6133 80 72.5067 64.3467 86.0933 57.1333C98.88 50.16 116.427 53.2667 125.507 64.8133C133.413 73.8133 133.987 88.2133 126.84 97.8133C123.493 102.387 118.187 106.307 112.253 105.813C107.813 105.427 104.88 100.333 106.533 96.24C108.573 92.1467 114.507 92.8133 116.547 88.64C120.867 82.6267 117.893 74.0133 112.093 70.1467C106.213 65.9867 98.0267 65.84 91.88 69.5333C82.32 74.6667 77.3733 86.1467 78.5067 96.68C79.28 103.267 83.44 108.6 87.24 113.76C93.0933 121.453 101.32 126.947 110 130.973C112.373 132.147 115.08 132.133 117.667 132.2C140.36 132.067 163.04 132.04 185.72 132.147C188.76 132.307 191 129.827 193.373 128.32C201.32 122.493 208.68 113.907 208.133 103.453C209.093 89.0267 194.053 77.64 180.427 79.3467C173.32 80.64 166.08 84.8133 163.36 91.8133C160.507 98.6133 161.467 107.44 167.2 112.48C171.667 116.293 178.627 117.68 183.853 114.6C187.173 113 187.467 108.373 190.947 106.987C195.573 105.347 199.733 111.013 197.707 115.173C193.507 125.147 181.16 129.787 171.08 126.72C157.507 123.547 148.347 108.653 151.187 95.1067C152.253 86.56 157.2 78.68 164.4 73.9467C172.053 68.2933 181.733 66.9333 191 67.9467C191.053 60.3333 185.96 54.28 181.493 48.6533C178.027 45.1733 181.747 39.6 185.813 38.6133C189.813 36.6267 194.187 38.3067 198.267 39.0933C197.947 33.4667 197.24 27.5867 199.387 22.2267ZM210.733 41.8133C211.187 45.0533 212.64 48.88 209.987 51.5733C207.307 55.48 202.08 52.8267 198.533 51.88C201.88 57.9733 204.347 65.52 201.24 72.2267C208.72 77.0667 215.427 83.92 217.88 92.72C220.667 82.8667 220.187 72.3867 219.28 62.28C217.28 48.7067 212 35.64 212.347 21.7467C207.747 27.5867 209.627 35.1733 210.733 41.8133ZM265.36 24.28C263.813 42.5067 255.667 59.6667 255.867 78.0667C256.68 82.64 256.387 87.72 258.947 91.76C262.32 83.5067 268.24 76.4667 276.04 72.08C272.96 65.24 275.84 57.7333 279.6 51.8C276.307 52.8 272.933 53.5333 269.507 53.8C267.627 52.0133 266.187 49.88 265.173 47.5067C266.48 40.0267 269.24 31.4267 265.36 24.28ZM26.52 197.44C19.6933 211.693 15.88 227.453 16.2133 243.293C16.0667 310.413 16.1733 377.533 16.1067 444.653C16.96 497.293 35.36 549.427 67.2667 591.24C79.0933 605.56 91.9467 619.413 107.147 630.147C110.48 615.267 117.387 601.4 126.04 588.92C149.613 551.333 193.613 528.707 237.613 528.28C260.867 528.693 284.12 534.427 304.28 546.187C335.427 564.747 360.573 594.813 369.56 630.32C382.24 620.24 393.08 608.12 403.773 596.027C418.253 578.467 429.8 558.627 438.787 537.747C450.773 509.627 458.12 479.387 458.72 448.76C458.667 378.467 458.733 308.187 458.707 237.893C458.56 213.64 448.387 189.587 430.587 173.013C414.24 157.013 391.12 148.533 368.36 149.013C279.453 149.013 190.547 148.947 101.64 149.04C70.1067 149.773 41.0267 169.893 26.52 197.44ZM221.333 544.867C195.667 548.24 171.333 560.4 152.867 578.48C135.827 595.267 124.48 617.36 119.387 640.64C129.693 647.347 140.107 653.987 151.36 659C193.12 678.947 241.933 684.307 286.813 672.587C311.787 666.347 335.147 654.707 356.427 640.373C353.373 621 344.093 602.867 331.493 587.973C315.813 569.787 295.333 555.4 272.213 548.507C255.707 544.187 238.293 542.027 221.333 544.867Z" fill="#291F75"/>
<path d="M294.24 200.253C301.467 200.373 308.693 200.307 315.92 200.253C318.52 223.413 320.32 246.667 322.48 269.88C322.293 272.867 326.173 272.587 328.147 273.36C328.147 279.36 328.12 285.373 328.04 291.373C321.413 291.48 314.773 291.64 308.147 291.36C305.36 291.187 301.987 289.733 301.467 286.68C300.213 271.147 299.56 255.56 298.467 240.013C293.707 252.427 288.773 264.813 283.213 276.907C276.96 276.533 270.293 277.88 264.307 276.267C259.027 264.387 253.987 252.347 249.333 240.2C248.347 255.2 246.813 270.227 245.827 285.253C245.52 289.213 241.493 291.253 237.92 291.36C231.413 291.667 224.907 291.307 218.4 291.52C218.187 285.413 218.253 279.293 218.227 273.187C219.96 272.693 221.68 272.2 223.413 271.707C225.96 247.907 228.293 224.093 230.32 200.253C237.253 200.373 244.187 200.253 251.12 200.333C253.2 199.747 254.4 201.667 254.92 203.307C261.013 219.213 267.707 234.88 273.707 250.827C280.573 233.973 286.547 216.747 294.24 200.253Z" fill="#291F75"/>
<path d="M364.973 200.24C372.293 200.52 379.627 200.28 386.947 200.413C394.4 223.707 403.627 246.413 411.773 269.467C412.6 272.453 415.853 272.547 418.333 273.253C418.32 279.307 418.413 285.373 418.387 291.44C410.773 290.587 401.627 293.853 395.2 288.507C391.88 283.453 391.253 277.147 388.813 271.667C379.947 271.747 371.08 271.56 362.213 271.627C360.507 276.307 359.187 281.107 357.533 285.813C356.667 289.187 353.173 291.347 349.813 291.453C344.307 291.587 338.787 291.4 333.28 291.507C333.227 285.373 333.107 279.227 333.28 273.093C335.24 272.28 338.293 272.68 339.013 270.16C347.907 246.96 355.813 223.347 364.973 200.24ZM376.08 225.533C373.44 235.293 370.867 245.08 367.44 254.613C373.027 254.827 378.627 254.827 384.213 254.8C381.413 245.067 378.72 235.307 376.08 225.533Z" fill="#291F75"/>
<path d="M65.2 210.747C71.9466 202.213 83.28 199.12 93.7466 199.013C103.347 199.573 113.813 202.547 119.707 210.707C123.44 215.84 122.12 222.467 122.387 228.387C115.48 229.4 108.48 228.533 101.56 228.053C101.56 226.173 102.893 223.653 100.92 222.333C96.6533 217.813 88.7466 217.987 84.2666 222.107C81.8533 225.547 83.64 230.653 87.52 232.16C98.1467 237.293 110.64 239.733 118.96 248.733C126.613 257 127.707 270.693 121.08 279.907C116.373 287.573 107.333 290.96 98.8666 292.413C83.7733 294.827 68.08 288.867 57.8933 277.573C62.4133 272.64 67.3466 268.093 72.1866 263.48C77.52 270.32 86.5067 273.973 95.0933 273C98.64 272.467 102.627 269.787 102.16 265.747C99.76 260.533 93.68 259.24 88.9333 257.08C79.5333 253.12 69.1866 249.053 63.2933 240.24C57.6133 231.307 58.36 218.853 65.2 210.747Z" fill="#291F75"/>
<path d="M132.493 220C132.693 213.413 132.453 206.84 132.8 200.267C139.787 200.453 146.773 200.293 153.747 200.387C157.707 200.147 162.013 203.027 162.107 207.24C162.36 217.133 161.947 227.04 162.253 236.947C165.173 236.933 168.093 236.933 171.013 236.92C177.867 225.08 183.32 212.467 189.653 200.333C197.72 200.347 205.8 200.387 213.867 200.36C209.507 211.267 203.28 221.307 198.2 231.88C195.413 236.533 194.053 242.293 189.533 245.68C197.16 252.213 199.307 262.747 205.2 270.613C207.16 273.067 210.693 272.493 213.453 273.067C213.4 279.213 213.44 285.347 213.387 291.493C205.147 290.84 194.947 293.853 188.467 287.213C182.36 277.853 178.28 267.307 172.493 257.747C170.467 254.187 165.52 256.08 162.173 255.533C162.253 267.413 162.107 279.293 162.12 291.173C154.56 291.413 146.987 291.627 139.413 291.32C139.427 269.573 139.387 247.813 139.44 226.053C139.453 224.027 139.147 222.04 138.76 220.067C136.667 220.04 134.587 220.013 132.493 220Z" fill="#291F75"/>
<path d="M548.787 545.693C548.92 437.24 548.8 328.787 548.853 220.32C552.333 220.32 555.8 220.32 559.293 220.333C559.36 328.72 559.2 437.107 559.347 545.493C555.827 545.72 552.307 545.747 548.787 545.693Z" fill="#291F75"/>
<path d="M667.04 228.867C686.427 219.987 709.107 218.533 729.44 225.027C748.067 230.72 765.133 245.213 769.72 264.707C758.333 269.227 747.013 273.867 735.747 278.653C733.267 271.96 730.093 265.013 723.867 261.027C712.667 253.693 697.293 252.76 685.533 259.307C677.173 263.867 673.987 276.093 679.813 283.84C685.067 290.613 693.76 292.813 701.44 295.667C721.28 302.693 743.373 306.84 759.2 321.773C778.547 338.333 779.133 370.107 764 389.627C753.147 404 735.093 411.027 717.667 412.907C697.4 415.04 676 411.827 658.387 401.187C645.76 393.627 636.987 380.96 632.387 367.173C643.547 362.373 654.6 357.293 665.733 352.44C669.107 361.187 674.52 369.64 683.013 374.147C694.813 380.4 709.293 381.48 721.88 376.973C729.027 374.227 735.36 367.413 734.733 359.333C735.44 351.947 730.2 345.547 723.813 342.587C707.267 334.96 689.213 331.467 672.467 324.36C660.853 319.8 650.533 311.813 643.773 301.293C635.64 287.16 635.547 269.187 641.893 254.36C646.667 243.04 656.2 234.32 667.04 228.867Z" fill="#291F75"/>
<path d="M800.693 225.227C813.733 225.347 826.787 225.227 839.84 225.253C839.84 252.773 839.88 280.28 839.787 307.8C861.067 280.027 882.987 252.747 904.733 225.333C921.08 225.173 937.44 225.267 953.787 225.347C929.4 254.067 905.96 283.573 881.88 312.56C906.867 345 932.533 376.947 956.333 410.28C940.693 410.4 925.067 410.453 909.427 410.48C891.333 387.853 874.32 364.413 856.667 341.44C855.347 340.293 853.92 336.4 851.907 338.613C847.907 343.307 843.707 347.853 839.853 352.68C839.76 371.933 839.947 391.213 839.8 410.48C826.813 410.267 813.827 410.347 800.827 410.507C799.453 405.493 800.44 400.36 800.56 395.293C800.6 385.533 800.68 375.773 800.133 366.027C801.16 352.253 799.707 338.467 800.467 324.68C799.693 302.853 801.333 281 800.187 259.16C800.613 247.853 800.587 236.533 800.693 225.227Z" fill="#291F75"/>
<path d="M980.907 225.213C995.053 225.187 1009.2 225.333 1023.35 225.307C1038.99 261.587 1054.52 297.947 1069.64 334.427C1084.59 297.987 1099.45 261.507 1114.73 225.2C1129.01 225.4 1143.29 225.187 1157.59 225.213C1159.95 268.12 1161.89 311.067 1164.83 353.947C1165.73 372.76 1167.13 391.533 1167.63 410.36C1154.71 410.467 1141.79 410.16 1128.87 410.547C1126.55 373.253 1124.6 335.92 1122.08 298.64C1114.51 317.36 1105.48 335.453 1097.64 354.053C1094.53 361.947 1090.56 369.467 1087.44 377.347C1075.17 377.067 1062.92 377.333 1050.67 377.24C1040.03 350.72 1028.23 324.68 1016.73 298.52C1014.39 335.8 1012.48 373.107 1010.55 410.413C998.667 410.333 986.8 410.347 974.933 410.48C973.453 410.187 970.92 411.28 970.827 409C974.04 347.747 977.867 286.493 980.907 225.213Z" fill="#291F75"/>
<path d="M1255.85 225.267C1269.89 225.32 1283.95 225.2 1298 225.24C1321.2 286.787 1344.15 348.427 1366.23 410.373C1352.29 410.32 1338.36 410.493 1324.44 410.4C1320.92 397.267 1315.35 384.8 1311.47 371.773C1288.15 371.92 1264.81 371.573 1241.48 371.987C1236.68 384.773 1232.4 397.76 1227.48 410.507C1213.63 410.133 1199.79 410.533 1185.95 410.387C1209.07 348.613 1232.19 286.827 1255.85 225.267ZM1276.4 271.2C1268.83 293.707 1261 316.133 1253.49 338.667C1268.99 338.907 1284.51 338.693 1300.01 338.68C1291.88 316.28 1284.64 293.533 1276.4 271.2Z" fill="#291F75"/>
<path d="M1378.48 317.8C1404.12 317.8 1429.76 317.8 1455.4 317.827C1455.36 328.4 1455.45 338.987 1455.49 349.56C1429.8 350.893 1404.09 348.733 1378.41 350.333C1378.2 339.493 1378.63 328.64 1378.48 317.8Z" fill="#291F75"/>
<path d="M205.493 325.947C211.853 320.467 222.72 320.88 228.28 327.36C238.12 338.347 235.387 357.933 223.04 365.92C216.92 369.427 209.013 369.573 202.773 366.28C203.96 363.253 205.133 360.227 206.453 357.253C212.213 360.933 219.813 357.96 221.853 351.547C216.6 353.8 210.413 353.213 205.827 349.773C198.693 344.12 198.413 331.76 205.493 325.947ZM212.827 333.093C210.427 334.733 211.12 338.08 211.413 340.533C213.16 344.2 218.107 344.987 221.587 343.467C225.893 338.667 218.587 328.16 212.827 333.093Z" fill="#291F75"/>
<path d="M279.56 327.92C283.68 322.333 291.613 321.053 297.907 323.173C304.053 325.48 307.8 331.693 309.133 337.867C310.547 347.453 308.173 358.373 300.6 364.907C294.227 370.08 285.2 369.867 278.08 366.387C279.387 363.373 280.573 360.307 281.613 357.187C284.707 358.027 287.933 359.28 291.187 358.467C294.173 357.04 296.453 354.453 297.773 351.44C295.48 351.893 293.227 352.427 290.973 353.013C286.92 352.253 282.427 351.44 279.84 347.88C275.133 342.28 274.88 333.613 279.56 327.92ZM288.787 333.12C286.56 334.813 286.013 338.013 287.387 340.427C289 344.333 294.187 345.133 297.667 343.4C301.973 338.507 294.707 328.293 288.787 333.12Z" fill="#291F75"/>
<path d="M165.187 334.227C169.227 330.453 173.213 326.627 177.213 322.8C180.587 322.813 183.96 322.813 187.333 322.8C187.253 334.72 187.24 346.64 187.347 358.56C190.627 358.627 193.92 358.667 197.213 358.72C197.213 361.827 197.213 364.947 197.187 368.067C187.027 368.013 176.88 368.093 166.72 368.053C166.747 364.947 166.747 361.84 166.747 358.747C169.867 358.707 173 358.68 176.133 358.653C176.28 351.467 176.16 344.267 176.2 337.093C174.6 338.347 173 339.613 171.373 340.84C169.293 338.64 167.213 336.453 165.187 334.227Z" fill="#291F75"/>
<path d="M239.347 336.12C239.387 331.693 239.413 327.28 239.533 322.867C250.72 322.893 261.907 322.773 273.093 322.84C272.96 326.387 273.987 330.347 271.893 333.507C265.107 344.84 259.04 356.587 252.52 368.08C248.36 368.027 244.2 367.987 240.04 367.933C246.307 355.76 254.52 344.64 260.373 332.253C256.6 332.253 252.84 332.253 249.08 332.253C249.067 333.253 249.053 335.253 249.053 336.253C245.813 336.2 242.573 336.173 239.347 336.12Z" fill="#291F75"/>
<path d="M110.72 344.053C123.48 343.987 136.24 343.933 149.013 343.987C149.013 347.213 148.987 350.44 148.933 353.68C136.16 353.507 123.387 353.88 110.627 353.547C110.68 350.373 110.707 347.213 110.72 344.053Z" fill="#291F75"/>
<path d="M325.867 344.053C338.827 343.96 351.787 343.92 364.747 344C364.787 347.24 364.8 350.493 364.773 353.747C351.773 353.533 338.787 353.707 325.787 353.68C325.813 350.467 325.84 347.253 325.867 344.053Z" fill="#291F75"/>
<path d="M229.92 405.12C234.893 405.107 239.853 405.12 244.827 405.16C244.76 438.587 244.747 472.027 244.867 505.467C240.08 506.8 235.067 506.04 230.173 506.28C228.88 499.6 229.493 492.773 229.787 486.027C228.88 462.893 230.133 439.747 229.493 416.64C229.693 412.8 229.987 408.96 229.92 405.12Z" fill="#291F75"/>
<path d="M286.053 455.773C290.907 456.533 295.52 458.307 300.28 459.493C295.933 476.453 290.72 493.187 286.187 510.107C281.387 508.707 276.653 507.04 271.76 506.04C276.293 489.213 281.16 472.48 286.053 455.773Z" fill="#291F75"/>
<path d="M176.653 459.707C181.48 458.333 186.333 457.04 191.147 455.653C195.613 472.52 200.267 489.347 204.92 506.173C200.027 507.32 195.24 508.893 190.333 510.013C185.72 493.253 181.333 476.44 176.653 459.707Z" fill="#291F75"/>
<path d="M639.96 479.387C651.467 480.427 664.267 476.96 674.573 483.653C684.12 489.693 686.613 502.213 685.373 512.733C685.053 524.373 676.027 535.16 664.36 536.733C656.28 537.613 648.12 536.813 640.013 537.12C639.773 517.88 639.947 498.627 639.96 479.387ZM650.373 489.12C650.36 501.733 650.427 514.347 650.36 526.96C655.213 526.947 660.2 527.627 664.947 526.387C671.187 524.307 674.08 517.533 674.693 511.453C675.4 504.693 674.36 496.827 668.853 492.213C663.6 488.04 656.56 489.253 650.373 489.12Z" fill="#291F75"/>
<path d="M704.08 479.533C707.547 479.493 711.027 479.48 714.52 479.48C714.547 498.68 714.573 517.893 714.467 537.107C711 537.093 707.547 537.107 704.093 537.08C704.013 517.893 704 498.72 704.08 479.533Z" fill="#291F75"/>
<path d="M739.333 487.747C747.44 477.76 763.387 475.707 773.907 483.04C778.04 485.88 780.733 490.48 781.693 495.36C778.467 495.947 775.293 496.773 772.16 497.693C769.96 493.653 766.747 489.267 761.733 488.973C755.387 487.76 748.84 491.347 746.093 497.107C743.093 504.373 743.493 512.827 746.547 520.013C750.253 528.453 762.787 530.72 769.32 524.293C771.92 521.893 772.493 518.267 773.027 514.973C768.613 514.907 764.2 514.907 759.8 514.88C759.787 511.8 759.813 508.747 759.867 505.68C767.693 505.613 775.52 505.507 783.36 505.72C783.4 514.013 784.027 523.627 777.8 530.093C771.507 537.6 760.773 538.787 751.707 536.947C742.52 534.52 735.44 526.12 733.973 516.827C732.067 507 733.16 495.933 739.333 487.747Z" fill="#291F75"/>
<path d="M802.267 479.44C805.8 479.467 809.36 479.467 812.92 479.48C812.747 498.667 813.08 517.853 812.867 537.04C809.333 537.04 805.813 537.067 802.293 537.093C802.027 517.88 802.36 498.653 802.267 479.44Z" fill="#291F75"/>
<path d="M830.613 479.507C844.4 479.56 858.187 479.48 871.987 479.453C871.947 482.693 871.933 485.92 871.973 489.173C866.84 489.093 861.707 489.067 856.573 489.2C856.8 505.173 856.48 521.16 856.667 537.147C853.067 537.107 849.48 537.107 845.893 537.12C845.92 521.12 845.813 505.12 845.973 489.12C840.8 489.147 835.64 489.147 830.48 489.147C830.547 485.92 830.587 482.707 830.613 479.507Z" fill="#291F75"/>
<path d="M898.787 479.693C902.947 479.52 907.133 479.533 911.32 479.4C917.387 496.04 923.2 512.773 929.133 529.467C930.08 531.893 930.56 534.467 931 537.04C927.413 537.067 923.84 537.08 920.28 536.987C918.907 532.587 917.44 528.213 915.813 523.92C908.733 524.013 901.667 523.84 894.6 523.933C893.107 528.32 891.547 532.693 889.907 537.04C886.32 537.027 882.747 537.04 879.187 537.067C885.267 517.787 892.627 498.947 898.787 479.693ZM897.627 514.48C902.8 514.627 907.987 514.613 913.173 514.48C910.187 506.92 907.747 499.147 905.467 491.36C902.707 499.013 899.987 506.693 897.627 514.48Z" fill="#291F75"/>
<path d="M948.84 479.373C952.36 479.12 955.907 479.2 959.453 479.52C959.373 495.36 959.387 511.2 959.44 527.04C967.107 527.72 974.8 527.573 982.493 527.627C982.44 530.773 982.413 533.92 982.36 537.067C971.227 537.04 960.093 537.147 948.96 537.107C948.68 517.867 949.027 498.613 948.84 479.373Z" fill="#291F75"/>
<path d="M1044.97 479.48C1049.2 479.427 1053.43 479.44 1057.67 479.533C1063.88 498.827 1071.25 517.747 1077.48 537.027C1073.79 537.04 1070.12 537.027 1066.44 537.067C1064.92 532.627 1063.45 528.173 1061.84 523.773C1054.72 523.933 1047.61 523.88 1040.49 523.853C1039.05 528.333 1037.63 532.827 1035.83 537.173C1032.21 537.107 1028.61 537.107 1025.03 537.107C1031.84 517.947 1038.27 498.667 1044.97 479.48ZM1050.68 492.507C1048.55 499.907 1046.11 507.2 1043.67 514.493C1048.68 514.533 1053.71 514.493 1058.75 514.467C1056.89 508.04 1054.51 501.8 1052.68 495.373C1052.48 494.053 1051.81 493.107 1050.68 492.507Z" fill="#291F75"/>
<path d="M1095.45 485.227C1104.73 474.027 1127.33 477.36 1130.31 492.533C1127.16 493.2 1124.08 494.107 1121.01 495C1118.97 489.12 1111.55 486.32 1106.15 489.44C1103.71 490.52 1103.15 493.28 1102.23 495.507C1106.75 503.707 1117.6 502.267 1124.59 507.107C1134.24 512.44 1134.16 528 1125.28 533.987C1119.17 538.347 1111.13 538.227 1104.08 536.907C1097.15 535.227 1092.48 529.333 1090.09 522.933C1093.44 521.493 1096.95 520.413 1100.48 519.48C1101.99 527.28 1111.84 530.68 1118.25 526.493C1121.89 524.173 1121.95 518.333 1118.25 516.027C1112.47 512.347 1105.19 512.04 1099.41 508.293C1091.31 504.08 1089.56 491.973 1095.45 485.227Z" fill="#291F75"/>
<path d="M1156.07 481.76C1166.39 475.333 1184.59 479 1186.52 492.56C1183.35 493.373 1180.23 494.36 1177.09 495.267C1175.11 489.467 1167.65 485.987 1162.28 489.533C1158.19 491.52 1158.16 498.187 1162.43 500C1169.61 503.373 1178.29 504.253 1184.19 510.053C1190.13 517.013 1188.77 529.4 1180.84 534.373C1174.72 538.387 1166.91 538.093 1160 536.907C1153.16 535.4 1148.65 529.44 1146.59 523.08C1149.81 521.747 1153.12 520.653 1156.49 519.733C1158.25 527.4 1167.91 530.453 1174.29 526.573C1178.2 523.907 1177.85 517.427 1173.49 515.413C1166.83 512.2 1158.97 511.387 1153.04 506.707C1145.4 500.187 1147.33 486.453 1156.07 481.76Z" fill="#291F75"/>
<path d="M1205.43 479.56C1217.17 479.573 1228.92 479.48 1240.68 479.493C1240.64 482.693 1240.63 485.907 1240.64 489.12C1232.41 489.227 1224.19 489.013 1215.96 489.227C1215.96 493.813 1216 498.413 1215.99 503.013C1223.29 504.147 1230.71 503.093 1238.05 503.853C1237.96 506.92 1237.88 509.987 1237.64 513.067C1230.4 512.933 1223.17 512.907 1215.95 513.027C1216.01 517.587 1216.11 522.16 1215.88 526.733C1224 529.027 1232.64 526.387 1240.88 527.813C1240.72 530.893 1240.67 533.973 1240.64 537.067C1229.05 537.213 1217.47 537 1205.89 537.107C1204.89 517.947 1205.65 498.733 1205.43 479.56Z" fill="#291F75"/>
<path d="M1268.05 480.467C1278.09 475.8 1294.11 480 1295.89 492.2C1292.96 493.453 1289.89 494.293 1286.88 495.267C1284.79 489.307 1277.36 486.08 1271.83 489.533C1267.77 491.373 1267.56 498.013 1271.73 499.827C1278.91 503.467 1287.83 503.987 1293.69 510.013C1299.4 516.547 1298.72 527.973 1291.71 533.36C1286.36 537.907 1278.88 538.2 1272.24 537.427C1264.56 536.533 1257.84 530.507 1256.32 522.88C1259.48 521.72 1262.68 520.64 1265.87 519.547C1267.93 526.96 1277.24 530.8 1283.75 526.64C1287.65 524.387 1287.83 517.987 1283.73 515.84C1276.75 511.867 1267.77 511.653 1261.84 505.76C1254.83 498.107 1258.08 483.907 1268.05 480.467Z" fill="#291F75"/>
<path d="M1316 486.92C1324.37 473.987 1347.68 476.747 1352.16 491.8C1348.96 493.08 1345.71 494.213 1342.4 495.133C1340.32 489.387 1332.88 485.987 1327.47 489.333C1323.39 491.387 1323.47 498.08 1327.71 499.947C1333.73 503.187 1340.99 503.6 1346.67 507.653C1355.03 512.92 1355.61 526.267 1348.32 532.693C1342.23 538.64 1332.89 538.307 1325.13 536.893C1318.33 535.307 1314.04 529.333 1311.93 523.053C1315.27 521.773 1318.67 520.68 1322.09 519.64C1323.55 527.773 1334.23 530.733 1340.4 526.093C1344 523.133 1342.79 517.267 1338.83 515.28C1332.45 512.24 1325.03 511.507 1319.31 507.107C1313.01 502.653 1312.61 493.253 1316 486.92Z" fill="#291F75"/>
<path d="M1370.79 479.52C1374.81 479.467 1378.87 479.493 1382.91 479.667C1387.29 491.373 1392.29 502.84 1396.76 514.52C1397.2 515.96 1398.05 517.253 1399.11 518.373C1404.07 505.333 1409.61 492.533 1414.53 479.48C1418.52 479.48 1422.51 479.467 1426.51 479.48C1426.37 498.693 1426.71 517.92 1426.59 537.133C1423.25 537.107 1419.93 537.12 1416.63 537.173C1416.6 525.333 1416.28 513.48 1415.57 501.68C1411.21 512.64 1407.64 524.013 1401.95 534.373C1399.55 534.333 1397.17 534.307 1394.83 534.307C1390.31 523.56 1386.53 512.48 1381.12 502.133C1381.11 513.787 1381.12 525.427 1381.03 537.08C1377.59 537.107 1374.17 537.12 1370.76 537.133C1370.73 517.92 1370.81 498.72 1370.79 479.52Z" fill="#291F75"/>
<path d="M1447.4 479.453C1459.01 479.733 1470.63 479.44 1482.24 479.453C1482.23 482.653 1482.2 485.853 1482.19 489.053C1473.92 489.187 1465.64 488.88 1457.39 489.427C1457.44 493.933 1457.4 498.44 1457.37 502.96C1464.71 503.187 1472.07 503.08 1479.41 502.987C1479.39 506.053 1479.4 509.107 1479.51 512.187C1472.24 513.84 1464.69 512.333 1457.32 513.133C1457.36 517.733 1457.39 522.333 1457.45 526.933C1465.8 528.32 1474.25 526.707 1482.57 527.64C1482.48 530.8 1482.43 533.973 1482.36 537.147C1470.48 537.013 1458.6 537.12 1446.73 537.053C1447.01 517.853 1445.96 498.573 1447.4 479.453Z" fill="#291F75"/>
<path d="M1501.13 479.44C1504.43 479.493 1507.75 479.507 1511.08 479.507C1518.99 491.987 1526.39 504.8 1534.87 516.907C1534.75 504.453 1534.85 492.013 1534.84 479.573C1538.28 479.493 1541.73 479.453 1545.2 479.48C1545.01 498.72 1545.24 517.96 1545.2 537.213C1541.85 537.133 1538.53 537.093 1535.21 537.067C1527.23 524.52 1520.07 511.4 1511.37 499.347C1511.4 511.907 1511.37 524.467 1511.35 537.027C1507.91 537.067 1504.48 537.12 1501.08 537.16C1501.11 517.92 1501.09 498.68 1501.13 479.44Z" fill="#291F75"/>
<path d="M1561.93 479.48C1575.76 479.787 1589.63 479.107 1603.44 479.693C1603.36 482.867 1603.24 486.053 1602.88 489.227C1597.76 489.067 1592.67 489.08 1587.57 489.133C1587.61 505.12 1587.57 521.107 1587.57 537.107C1584.04 537.08 1580.53 537.093 1577.03 537.107C1576.85 521.093 1576.99 505.08 1576.99 489.067C1571.93 489.187 1566.88 489.173 1561.85 489.16C1561.85 485.92 1561.88 482.693 1561.93 479.48Z" fill="#291F75"/>
<path d="M1647.99 479.453C1655.25 479.573 1662.52 479.32 1669.79 479.587C1676.76 479.76 1683.76 484.36 1685.65 491.28C1687.79 498.6 1686.89 507.84 1680.35 512.68C1674.29 518.013 1665.75 515.813 1658.44 516.293C1658.41 523.227 1658.57 530.147 1658.33 537.08C1654.85 537.067 1651.39 537.08 1647.93 537.107C1647.88 517.893 1647.84 498.667 1647.99 479.453ZM1658.51 488.947C1658.44 494.947 1658.37 500.947 1658.44 506.947C1662.73 506.813 1667.16 507.453 1671.39 506.373C1677.08 503.56 1677.56 494.76 1672.95 490.773C1668.71 487.893 1663.28 489.347 1658.51 488.947Z" fill="#291F75"/>
<path d="M1702.45 479.173C1705.92 479.333 1709.4 479.44 1712.91 479.387C1712.97 495.467 1712.72 511.56 1713.07 527.653C1720.6 527.64 1728.15 527.613 1735.69 527.573C1735.65 530.733 1735.6 533.893 1735.55 537.067C1724.53 537.013 1713.52 537.107 1702.51 537.08C1702.29 517.773 1702.6 498.48 1702.45 479.173Z" fill="#291F75"/>
<path d="M1768.31 479.933C1772.55 479.453 1777.03 478.88 1781.23 479.92C1787.33 499.013 1794.63 517.773 1800.2 537.04C1796.67 537.067 1793.16 537.093 1789.65 537.013C1788.53 532.64 1786.89 528.44 1785.85 524.067C1778.63 523.84 1771.39 523.707 1764.19 524.147C1763.27 528.52 1761.83 532.76 1760.51 537.027C1756.88 537.04 1753.28 537.053 1749.68 537.053C1755.15 517.8 1762.85 499.2 1768.31 479.933ZM1774.76 492.067C1772.44 499.587 1769.71 506.973 1767.49 514.52C1772.47 514.48 1777.44 514.48 1782.44 514.48C1779.61 507.107 1777.6 499.427 1774.76 492.067Z" fill="#291F75"/>
<path d="M1806.59 479.44C1820.36 479.653 1834.13 479.467 1847.92 479.48C1847.87 482.68 1847.85 485.867 1847.89 489.08C1842.75 489.147 1837.63 489.2 1832.51 489.213C1831.85 505.173 1832.27 521.147 1832.17 537.107C1828.8 537.12 1825.44 537.16 1822.11 537.28C1821.77 521.28 1822.05 505.28 1821.96 489.293C1816.85 489.147 1811.76 489.107 1806.67 489.013C1806.61 485.827 1806.59 482.627 1806.59 479.44Z" fill="#291F75"/>
<path d="M1863.83 479.427C1875.21 479.6 1886.6 479.493 1897.99 479.52C1897.95 482.68 1897.92 485.853 1897.92 489.04C1890.07 489.08 1882.21 489.107 1874.39 489.12C1874.28 494.027 1874.28 498.933 1874.36 503.853C1881.37 503.88 1888.4 503.84 1895.43 503.813C1895.41 507 1895.44 510.2 1895.49 513.413C1888.47 513.413 1881.45 513.453 1874.44 513.413C1874.21 521.307 1874.47 529.187 1874.27 537.067C1870.79 537.08 1867.32 537.093 1863.88 537.107C1863.73 517.88 1863.87 498.653 1863.83 479.427Z" fill="#291F75"/>
<path d="M1928.95 480.24C1938.13 476.653 1949.31 479.08 1956.21 486.12C1962.39 492.893 1964.29 502.573 1963.68 511.493C1962.92 519.987 1959.44 528.907 1952.04 533.72C1945.88 538.093 1937.83 538.253 1930.68 536.96C1920.39 534.44 1913.56 524.32 1912.76 514.12C1912.27 507.507 1912.13 500.573 1914.87 494.373C1917.23 487.907 1922.45 482.587 1928.95 480.24ZM1932.91 489.427C1922.84 493.427 1921.99 506.133 1923.65 515.347C1924.59 523.227 1932.59 529.44 1940.49 527.773C1945.59 526.827 1949.81 522.933 1951.31 517.973C1954 510.52 1953.57 501.893 1949.89 494.853C1946.47 489.187 1938.92 487.653 1932.91 489.427Z" fill="#291F75"/>
<path d="M1981.01 479.453C1988.39 479.68 1995.79 479.387 2003.17 479.667C2009.15 479.733 2015.09 482.973 2018.08 488.213C2020.41 492.96 2020.72 498.653 2019.29 503.733C2017.8 508.627 2013.57 512.04 2009.03 513.987C2013.32 521.72 2018.13 529.187 2022.11 537.107C2018.04 537.067 2014.01 537.067 2009.99 537.093C2005.97 529.76 2002.73 522 1998.07 515.04C1995.89 515.067 1993.73 515.08 1991.6 515.093C1991.19 522.427 1991.44 529.773 1991.43 537.12C1987.96 537.107 1984.51 537.107 1981.07 537.107C1981.03 517.893 1981.03 498.667 1981.01 479.453ZM1991.39 489.133C1991.36 494.853 1991.31 500.56 1991.48 506.28C1995.91 506.16 2000.55 506.8 2004.84 505.347C2010.08 503.027 2010.8 495.147 2007.01 491.253C2002.56 487.8 1996.56 489.427 1991.39 489.133Z" fill="#291F75"/>
<path d="M2038.13 479.48C2041.97 479.507 2045.83 479.533 2049.71 479.573C2055.01 492.653 2060.27 505.747 2065.47 518.867C2070.77 505.733 2076.07 492.6 2081.32 479.453C2085.15 479.507 2089 479.507 2092.88 479.453C2093.19 498.667 2092.93 517.88 2093.05 537.107C2089.8 537.107 2086.57 537.16 2083.37 537.293C2082.27 532.68 2083.69 527.947 2083.07 523.28C2082.13 516.147 2083.44 508.893 2082.16 501.813C2078.41 512.587 2073.61 522.947 2069.48 533.573C2066.75 533.627 2064.04 533.64 2061.36 533.64C2057.07 523.08 2053.24 512.293 2048.21 502.067C2048.56 513.72 2047.99 525.373 2047.87 537.04C2044.59 537.053 2041.33 537.08 2038.09 537.147C2037.67 517.92 2038.25 498.693 2038.13 479.48Z" fill="#291F75"/>
<path d="M135.213 500.213C139.213 497.267 143.48 494.72 147.933 492.507C153.587 502.027 159.227 511.587 165.507 520.72C161.293 523.16 157.16 525.76 153.133 528.52C146.72 519.387 141.253 509.6 135.213 500.213Z" fill="#291F75"/>
<path d="M327.787 492.547C332.307 494.667 336.52 497.4 340.533 500.36C334.333 509.627 328.827 519.373 322.147 528.333C318.267 525.44 314.107 523 309.88 520.68C315.853 511.307 321.987 502.027 327.787 492.547Z" fill="#291F75"/>
<path d="M97.6267 537.92C101.013 533.933 104.627 530.16 108.307 526.453C115.493 534.013 123.427 540.827 130.613 548.387C127.107 551.827 123.84 555.52 120.413 559.053C112.667 552.173 105.4 544.773 97.6267 537.92Z" fill="#291F75"/>
<path d="M345.84 547.507C353.707 540.787 360.88 533.307 368.76 526.6C372.28 530.173 375.547 533.987 378.707 537.88C371 544.72 363.84 552.133 356.227 559.067C352.72 555.253 349.267 551.373 345.84 547.507Z" fill="#291F75"/>
<path d="M70.96 563.96C80.2267 568.307 89.3333 573 98.3467 577.867C95.76 582.107 93.8267 586.707 91.32 591.013C82.48 586.413 73.4934 582.107 64.6667 577.507C66.1067 572.72 68.92 568.493 70.96 563.96Z" fill="#291F75"/>
<path d="M379.12 577.72C387.187 572.747 395.56 568.2 404.253 564.413C406.307 569 408.693 573.44 410.587 578.093C401.947 582.56 393.187 586.8 384.387 590.947C382.88 586.44 381.12 582.027 379.12 577.72Z" fill="#291F75"/>
<path d="M1487.95 225.333C1527.36 225.293 1566.77 225.227 1606.19 225.333C1606.24 236.613 1606.2 247.893 1606.16 259.173C1579.48 259.587 1552.8 259.52 1526.11 259.52C1526.05 273.453 1525.93 287.4 1526.08 301.347C1549.68 301.787 1573.29 301.16 1596.91 301.653C1597.15 301.973 1597.65 302.627 1597.89 302.947C1598.39 313.387 1597.84 323.84 1598.04 334.28C1574.07 334.28 1550.08 334.147 1526.12 334.373C1526.07 348.32 1526.17 362.28 1525.93 376.227C1552.75 376.307 1579.57 376.307 1606.4 376.24C1608.79 387.56 1605.88 399.08 1606.8 410.493C1567.16 410.333 1527.52 410.373 1487.89 410.453C1487.89 348.747 1487.84 287.04 1487.95 225.333Z" fill="#4C36F1"/>
<path d="M1781.93 290.24C1794.13 282.653 1809 280.267 1823.17 281.267C1833.37 282.027 1843.88 284.107 1852.53 289.893C1859.81 294.587 1865.59 301.627 1868.47 309.827C1872.95 321.827 1871.55 334.84 1871.79 347.373C1871.99 357.16 1871.56 366.973 1871.93 376.76C1872.95 380.68 1877.24 381.893 1880.85 381.893C1880.76 391.333 1881.08 400.773 1880.75 410.213C1870.32 411.493 1859.31 413.12 1849.24 409.093C1843.59 406.64 1840.77 400.693 1839.45 395.027C1834.85 401.347 1828.92 406.973 1821.49 409.747C1807.16 415.44 1790.17 414.4 1776.68 406.933C1758.87 396.773 1753.29 371.12 1764.48 354.147C1769.39 345.88 1778.36 341.347 1787.13 338.28C1798.23 334.4 1810.15 334.333 1821.77 334.147C1826.76 333.88 1831.77 333.64 1836.77 334.213C1836.83 328.293 1837.65 321.6 1833.76 316.613C1829.87 311.053 1822.75 309.16 1816.29 309.213C1809.8 309.387 1802.63 310.72 1798.21 315.933C1795.64 318.467 1794.95 322.12 1794.08 325.493C1783.93 322.96 1773.79 320.333 1763.6 317.973C1765.69 306.8 1772.17 296.267 1781.93 290.24ZM1797.37 363.08C1794.01 366.84 1793.33 372.307 1794.65 377.053C1796.24 382 1800.95 385.307 1805.89 386.373C1816.53 388.627 1828.89 384.507 1834.63 374.92C1838.03 369.16 1836.96 362.2 1837.01 355.827C1829.64 355.8 1822.27 355.533 1814.92 355.893C1808.56 356.413 1801.59 357.88 1797.37 363.08Z" fill="#4C36F1"/>
<path d="M1953.79 284.933C1965.93 279.4 1980.51 279.973 1992.4 285.92C1999.52 289.52 2004.88 295.88 2008.47 302.92C2015.61 290.147 2029.65 281.813 2044.24 281.213C2053.44 280.907 2063.04 282.347 2070.97 287.32C2081.17 293.533 2087.36 304.907 2089.07 316.533C2089.99 321.827 2090.28 327.227 2090.21 332.6C2090.28 358.547 2090.19 384.48 2090.19 410.427C2078.19 410.227 2066.21 410.56 2054.23 410.52C2054.32 389 2054.25 367.48 2054.23 345.96C2053.97 338.453 2055.23 330.613 2052.39 323.467C2049.92 316.347 2042.61 311.467 2035.09 312.04C2023.35 311.813 2013.45 322.48 2013.32 334C2013.11 359.48 2013.45 384.96 2013.16 410.44C2001.39 410.227 1989.61 410.413 1977.85 410.533C1977.84 389.013 1977.92 367.493 1977.89 345.973C1977.65 336.44 1979.11 325.547 1972.71 317.573C1965.96 309.853 1953.12 310.133 1945.51 316.44C1938.87 321.373 1936.47 330.093 1936.8 338.04C1936.87 362.173 1936.92 386.307 1936.8 410.453C1924.68 410.36 1912.57 410.493 1900.47 410.467C1899.91 377.013 1900.2 343.507 1900.13 310.027C1899.84 301.467 1900.56 292.92 1900.55 284.36C1911.92 284.44 1923.29 284.333 1934.67 284.44C1935.59 289.96 1935.29 295.573 1935.6 301.16C1940.16 294.293 1946.07 288.187 1953.79 284.933Z" fill="#4C36F1"/>
<path d="M1622.27 284.52C1635.89 284.307 1649.53 284.427 1663.17 284.387C1670.55 296.613 1678.84 308.227 1686.41 320.333C1694.49 308.547 1701.72 296.187 1709.97 284.507C1723.48 284.227 1736.99 284.373 1750.51 284.4C1735.75 304.533 1722.03 325.427 1707.57 345.787C1722.56 367.173 1737.49 388.6 1751.97 410.32C1738.39 410.28 1724.81 410.427 1711.24 410.44C1703.32 397.12 1694.39 384.427 1685.96 371.44C1677.77 384.587 1668.96 397.347 1660.6 410.387C1647.32 410.44 1634.05 410.32 1620.79 410.373C1635.32 388.787 1650.01 367.28 1664.88 345.893C1658.25 335.573 1650.77 325.84 1644.15 315.533C1636.91 305.147 1629.19 295.107 1622.27 284.52Z" fill="#4C36F1"/>
</g>
<defs>
<clipPath id="clip0_0_3">
<rect width="2093" height="695" fill="white"/>
</clipPath>
</defs>
</svg>
