<svg width="476" height="695" viewBox="0 0 476 695" fill="none" xmlns="http://www.w3.org/2000/svg">
<path d="M199.676 22.4C203.236 12.44 211.756 5.16 220.689 0C223.183 1.48 225.196 3.57334 226.676 6.05334C224.943 9.42668 223.543 13.0133 223.196 16.8267C221.609 38.68 233.583 59.0133 231.756 80.8933C229.543 99.72 220.743 117.16 209.503 132.2C229.303 132.36 249.103 132.227 268.903 132.293C262.529 123.907 255.743 115.64 251.556 105.867C246.809 95.52 244.263 84.16 244.569 72.7733C245.289 61.92 248.396 51.4667 251.156 41.0133C253.396 32.7467 253.756 24.12 253.289 15.6133C253.209 12.24 251.063 9.42667 250.489 6.18667C251.143 3.13333 254.236 1.62668 256.583 0.0133464C265.463 4.70668 273.209 12.08 277.503 21.24C280.209 26.9333 279.796 33.3867 278.836 39.44C283.143 38.6 287.809 36.7867 292.049 38.9067C295.436 40.1333 298.916 43.9333 297.049 47.6933C292.183 53.6 286.116 60.0534 286.823 68.3067C296.356 67.2134 306.503 69.2 313.983 75.4933C324.556 83.9733 329.409 100.16 322.849 112.48C317.196 123.947 302.476 131.093 290.289 125.973C284.516 123.84 278.649 118.44 279.596 111.747C279.663 108.187 283.983 105.693 287.129 107.333C290.596 108.827 290.623 113.827 294.383 115.053C304.009 119.587 315.583 109.453 314.836 99.4133C314.556 87.6933 302.796 77.76 291.223 79.5467C278.596 81.0133 268.049 93.3467 269.329 106.147C270.129 114.387 275.409 121.467 281.689 126.533C284.969 128.92 288.236 132.427 292.609 132.253C316.209 132.213 339.809 132.347 363.409 132.2C372.423 130.907 380.423 125.267 385.996 118.213C393.303 110.907 400.143 101.12 398.436 90.24C397.636 79.2 389.223 68.52 377.943 67.0134C368.236 65.64 358.103 74.6533 359.916 84.68C360.636 89.7067 364.769 93.7467 369.903 93.9867C372.143 96.4267 373.343 100.36 371.023 103.16C367.609 107.827 360.916 105.8 356.836 103.2C347.783 96.9733 344.343 84.4933 347.743 74.2133C351.956 59.4267 369.143 50.2933 383.823 54.6267C401.583 59.1467 413.169 77.7733 412.023 95.6267C424.503 89.96 439.129 89.6133 451.796 94.9467C458.396 97.92 465.676 100.947 469.703 107.333C468.636 110.947 467.076 116.387 462.116 115.347C458.183 113.187 455.009 109.787 450.796 108.093C438.863 103.027 424.489 102.867 412.983 109.173C406.796 112.613 402.849 118.72 398.449 124.053C395.489 127.693 391.169 130.027 388.703 134.093C408.476 136.787 426.783 146.6 441.289 160.133C462.889 179.853 474.996 209.053 475.023 238.187C474.956 309.307 475.063 380.44 474.943 451.56C473.276 507.68 452.249 562.893 416.956 606.467C397.169 630.373 373.503 651.347 346.169 666.2C324.076 678.787 299.623 686.987 274.689 691.693C228.676 699.68 180.409 691.64 138.689 670.92C105.223 653.867 75.8626 628.947 53.156 599.067C20.6893 556.973 2.22264 504.493 0.0359727 451.467C-0.0573606 381.693 0.0759772 311.92 0.00931049 242.16C-0.337356 216.067 9.00931 189.96 25.956 170.12C41.6093 151.28 64.0226 137.92 88.2893 134.027C84.9026 130.027 80.9293 126.573 77.7293 122.427C73.876 117.853 70.6893 112.453 65.3693 109.36C51.316 101.347 32.2493 102.507 19.9293 113.293C16.1826 117.573 9.51597 113.92 9.18264 108.84C8.42264 106.733 10.916 105.52 11.996 104.133C26.1426 91.3333 47.7426 87.2933 65.2626 95.2933C64.9026 80.1733 72.796 64.52 86.3827 57.3067C99.1693 50.3333 116.716 53.44 125.796 64.9867C133.703 73.9867 134.276 88.3867 127.129 97.9867C123.783 102.56 118.476 106.48 112.543 105.987C108.103 105.6 105.169 100.507 106.823 96.4133C108.863 92.32 114.796 92.9867 116.836 88.8133C121.156 82.8 118.183 74.1867 112.383 70.32C106.503 66.16 98.316 66.0133 92.1693 69.7067C82.6093 74.84 77.6627 86.32 78.796 96.8533C79.5693 103.44 83.7293 108.773 87.5293 113.933C93.3826 121.627 101.609 127.12 110.289 131.147C112.663 132.32 115.369 132.307 117.956 132.373C140.649 132.24 163.329 132.213 186.009 132.32C189.049 132.48 191.289 130 193.663 128.493C201.609 122.667 208.969 114.08 208.423 103.627C209.383 89.2 194.343 77.8133 180.716 79.52C173.609 80.8133 166.369 84.9867 163.649 91.9867C160.796 98.7867 161.756 107.613 167.489 112.653C171.956 116.467 178.916 117.853 184.143 114.773C187.463 113.173 187.756 108.547 191.236 107.16C195.863 105.52 200.023 111.187 197.996 115.347C193.796 125.32 181.449 129.96 171.369 126.893C157.796 123.72 148.636 108.827 151.476 95.28C152.543 86.7333 157.489 78.8534 164.689 74.12C172.343 68.4667 182.023 67.1067 191.289 68.12C191.343 60.5067 186.249 54.4533 181.783 48.8267C178.316 45.3467 182.036 39.7733 186.103 38.7867C190.103 36.8 194.476 38.48 198.556 39.2667C198.236 33.64 197.529 27.76 199.676 22.4ZM211.023 41.9867C211.476 45.2267 212.929 49.0533 210.276 51.7467C207.596 55.6533 202.369 53 198.823 52.0533C202.169 58.1467 204.636 65.6933 201.529 72.4C209.009 77.24 215.716 84.0933 218.169 92.8933C220.956 83.04 220.476 72.56 219.569 62.4534C217.569 48.88 212.289 35.8133 212.636 21.92C208.036 27.76 209.916 35.3467 211.023 41.9867ZM265.649 24.4534C264.103 42.68 255.956 59.84 256.156 78.24C256.969 82.8133 256.676 87.8933 259.236 91.9333C262.609 83.68 268.529 76.64 276.329 72.2533C273.249 65.4133 276.129 57.9067 279.889 51.9734C276.596 52.9734 273.223 53.7067 269.796 53.9734C267.916 52.1867 266.476 50.0533 265.463 47.68C266.769 40.2 269.529 31.6 265.649 24.4534ZM26.8093 197.613C19.9826 211.867 16.1693 227.627 16.5026 243.467C16.356 310.587 16.4626 377.707 16.396 444.827C17.2493 497.467 35.6493 549.6 67.556 591.413C79.3826 605.733 92.236 619.587 107.436 630.32C110.769 615.44 117.676 601.573 126.329 589.093C149.903 551.507 193.903 528.88 237.903 528.453C261.156 528.867 284.409 534.6 304.569 546.36C335.716 564.92 360.863 594.987 369.849 630.493C382.529 620.413 393.369 608.293 404.063 596.2C418.543 578.64 430.089 558.8 439.076 537.92C451.063 509.8 458.409 479.56 459.009 448.933C458.956 378.64 459.023 308.36 458.996 238.067C458.849 213.813 448.676 189.76 430.876 173.187C414.529 157.187 391.409 148.707 368.649 149.187C279.743 149.187 190.836 149.12 101.929 149.213C70.396 149.947 41.316 170.067 26.8093 197.613ZM221.623 545.04C195.956 548.413 171.623 560.573 153.156 578.653C136.116 595.44 124.769 617.533 119.676 640.813C129.983 647.52 140.396 654.16 151.649 659.173C193.409 679.12 242.223 684.48 287.103 672.76C312.076 666.52 335.436 654.88 356.716 640.547C353.663 621.173 344.383 603.04 331.783 588.147C316.103 569.96 295.623 555.573 272.503 548.68C255.996 544.36 238.583 542.2 221.623 545.04Z" fill="#291F75"/>
<path d="M294.529 200.427C301.756 200.547 308.983 200.48 316.209 200.427C318.809 223.587 320.609 246.84 322.769 270.053C322.583 273.04 326.463 272.76 328.436 273.533C328.436 279.533 328.409 285.547 328.329 291.547C321.703 291.653 315.063 291.813 308.436 291.533C305.649 291.36 302.276 289.907 301.756 286.853C300.503 271.32 299.849 255.733 298.756 240.187C293.996 252.6 289.063 264.987 283.503 277.08C277.249 276.707 270.583 278.053 264.596 276.44C259.316 264.56 254.276 252.52 249.623 240.373C248.636 255.373 247.103 270.4 246.116 285.427C245.809 289.387 241.783 291.427 238.209 291.533C231.703 291.84 225.196 291.48 218.689 291.693C218.476 285.587 218.543 279.467 218.516 273.36C220.249 272.867 221.969 272.373 223.703 271.88C226.249 248.08 228.583 224.267 230.609 200.427C237.543 200.547 244.476 200.427 251.409 200.507C253.489 199.92 254.689 201.84 255.209 203.48C261.303 219.387 267.996 235.053 273.996 251C280.863 234.147 286.836 216.92 294.529 200.427Z" fill="#291F75"/>
<path d="M365.263 200.413C372.583 200.693 379.916 200.453 387.236 200.587C394.689 223.88 403.916 246.587 412.063 269.64C412.889 272.627 416.143 272.72 418.623 273.427C418.609 279.48 418.703 285.547 418.676 291.613C411.063 290.76 401.916 294.027 395.489 288.68C392.169 283.627 391.543 277.32 389.103 271.84C380.236 271.92 371.369 271.733 362.503 271.8C360.796 276.48 359.476 281.28 357.823 285.987C356.956 289.36 353.463 291.52 350.103 291.627C344.596 291.76 339.076 291.573 333.569 291.68C333.516 285.547 333.396 279.4 333.569 273.267C335.529 272.453 338.583 272.853 339.303 270.333C348.196 247.133 356.103 223.52 365.263 200.413ZM376.369 225.707C373.729 235.467 371.156 245.253 367.729 254.787C373.316 255 378.916 255 384.503 254.973C381.703 245.24 379.009 235.48 376.369 225.707Z" fill="#291F75"/>
<path d="M65.4893 210.92C72.2359 202.387 83.5693 199.293 94.036 199.187C103.636 199.747 114.103 202.72 119.996 210.88C123.729 216.013 122.409 222.64 122.676 228.56C115.769 229.573 108.769 228.707 101.849 228.227C101.849 226.347 103.183 223.827 101.209 222.507C96.9426 217.987 89.036 218.16 84.556 222.28C82.1426 225.72 83.9293 230.827 87.8093 232.333C98.436 237.467 110.929 239.907 119.249 248.907C126.903 257.173 127.996 270.867 121.369 280.08C116.663 287.747 107.623 291.133 99.1559 292.587C84.0626 295 68.3693 289.04 58.1826 277.747C62.7026 272.813 67.636 268.267 72.476 263.653C77.8093 270.493 86.796 274.147 95.3826 273.173C98.9293 272.64 102.916 269.96 102.449 265.92C100.049 260.707 93.9693 259.413 89.2226 257.253C79.8226 253.293 69.476 249.227 63.5826 240.413C57.9026 231.48 58.6493 219.027 65.4893 210.92Z" fill="#291F75"/>
<path d="M132.783 220.173C132.983 213.587 132.743 207.013 133.089 200.44C140.076 200.627 147.063 200.467 154.036 200.56C157.996 200.32 162.303 203.2 162.396 207.413C162.649 217.307 162.236 227.213 162.543 237.12C165.463 237.107 168.383 237.107 171.303 237.093C178.156 225.253 183.609 212.64 189.943 200.507C198.009 200.52 206.089 200.56 214.156 200.533C209.796 211.44 203.569 221.48 198.489 232.053C195.703 236.707 194.343 242.467 189.823 245.853C197.449 252.387 199.596 262.92 205.489 270.787C207.449 273.24 210.983 272.667 213.743 273.24C213.689 279.387 213.729 285.52 213.676 291.667C205.436 291.013 195.236 294.027 188.756 287.387C182.649 278.027 178.569 267.48 172.783 257.92C170.756 254.36 165.809 256.253 162.463 255.707C162.543 267.587 162.396 279.467 162.409 291.347C154.849 291.587 147.276 291.8 139.703 291.493C139.716 269.747 139.676 247.987 139.729 226.227C139.743 224.2 139.436 222.213 139.049 220.24C136.956 220.213 134.876 220.187 132.783 220.173Z" fill="#291F75"/>
<path d="M205.783 326.12C212.143 320.64 223.009 321.053 228.569 327.533C238.409 338.52 235.676 358.107 223.329 366.093C217.209 369.6 209.303 369.747 203.063 366.453C204.249 363.427 205.423 360.4 206.743 357.427C212.503 361.107 220.103 358.133 222.143 351.72C216.889 353.973 210.703 353.387 206.116 349.947C198.983 344.293 198.703 331.933 205.783 326.12ZM213.116 333.267C210.716 334.907 211.409 338.253 211.703 340.707C213.449 344.373 218.396 345.16 221.876 343.64C226.183 338.84 218.876 328.333 213.116 333.267Z" fill="#291F75"/>
<path d="M279.849 328.093C283.969 322.507 291.903 321.227 298.196 323.347C304.343 325.653 308.089 331.867 309.423 338.04C310.836 347.627 308.463 358.547 300.889 365.08C294.516 370.253 285.489 370.04 278.369 366.56C279.676 363.547 280.863 360.48 281.903 357.36C284.996 358.2 288.223 359.453 291.476 358.64C294.463 357.213 296.743 354.627 298.063 351.613C295.769 352.067 293.516 352.6 291.263 353.187C287.209 352.427 282.716 351.613 280.129 348.053C275.423 342.453 275.169 333.787 279.849 328.093ZM289.076 333.293C286.849 334.987 286.303 338.187 287.676 340.6C289.289 344.507 294.476 345.307 297.956 343.573C302.263 338.68 294.996 328.467 289.076 333.293Z" fill="#291F75"/>
<path d="M165.476 334.4C169.516 330.627 173.503 326.8 177.503 322.973C180.876 322.987 184.249 322.987 187.623 322.973C187.543 334.893 187.529 346.813 187.636 358.733C190.916 358.8 194.209 358.84 197.503 358.893C197.503 362 197.503 365.12 197.476 368.24C187.316 368.187 177.169 368.267 167.009 368.227C167.036 365.12 167.036 362.013 167.036 358.92C170.156 358.88 173.289 358.853 176.423 358.827C176.569 351.64 176.449 344.44 176.489 337.267C174.889 338.52 173.289 339.787 171.663 341.013C169.583 338.813 167.503 336.627 165.476 334.4Z" fill="#291F75"/>
<path d="M239.636 336.293C239.676 331.867 239.703 327.453 239.823 323.04C251.009 323.067 262.196 322.947 273.383 323.013C273.249 326.56 274.276 330.52 272.183 333.68C265.396 345.013 259.329 356.76 252.809 368.253C248.649 368.2 244.489 368.16 240.329 368.107C246.596 355.933 254.809 344.813 260.663 332.427C256.889 332.427 253.129 332.427 249.369 332.427C249.356 333.427 249.343 335.427 249.343 336.427C246.103 336.373 242.863 336.347 239.636 336.293Z" fill="#291F75"/>
<path d="M111.009 344.227C123.769 344.16 136.529 344.107 149.303 344.16C149.303 347.387 149.276 350.613 149.223 353.853C136.449 353.68 123.676 354.053 110.916 353.72C110.969 350.547 110.996 347.387 111.009 344.227Z" fill="#291F75"/>
<path d="M326.156 344.227C339.116 344.133 352.076 344.093 365.036 344.173C365.076 347.413 365.089 350.667 365.063 353.92C352.063 353.707 339.076 353.88 326.076 353.853C326.103 350.64 326.129 347.427 326.156 344.227Z" fill="#291F75"/>
<path d="M230.209 405.293C235.183 405.28 240.143 405.293 245.116 405.333C245.049 438.76 245.036 472.2 245.156 505.64C240.369 506.973 235.356 506.213 230.463 506.453C229.169 499.773 229.783 492.947 230.076 486.2C229.169 463.067 230.423 439.92 229.783 416.813C229.983 412.973 230.276 409.133 230.209 405.293Z" fill="#291F75"/>
<path d="M286.343 455.947C291.196 456.707 295.809 458.48 300.569 459.667C296.223 476.627 291.009 493.36 286.476 510.28C281.676 508.88 276.943 507.213 272.049 506.213C276.583 489.387 281.449 472.653 286.343 455.947Z" fill="#291F75"/>
<path d="M176.943 459.88C181.769 458.507 186.623 457.213 191.436 455.827C195.903 472.693 200.556 489.52 205.209 506.347C200.316 507.493 195.529 509.067 190.623 510.187C186.009 493.427 181.623 476.613 176.943 459.88Z" fill="#291F75"/>
<path d="M135.503 500.387C139.503 497.44 143.769 494.893 148.223 492.68C153.876 502.2 159.516 511.76 165.796 520.893C161.583 523.333 157.449 525.933 153.423 528.693C147.009 519.56 141.543 509.773 135.503 500.387Z" fill="#291F75"/>
<path d="M328.076 492.72C332.596 494.84 336.809 497.573 340.823 500.533C334.623 509.8 329.116 519.547 322.436 528.507C318.556 525.613 314.396 523.173 310.169 520.853C316.143 511.48 322.276 502.2 328.076 492.72Z" fill="#291F75"/>
<path d="M97.916 538.093C101.303 534.107 104.916 530.333 108.596 526.627C115.783 534.187 123.716 541 130.903 548.56C127.396 552 124.129 555.693 120.703 559.227C112.956 552.347 105.689 544.947 97.916 538.093Z" fill="#291F75"/>
<path d="M346.129 547.68C353.996 540.96 361.169 533.48 369.049 526.773C372.569 530.347 375.836 534.16 378.996 538.053C371.289 544.893 364.129 552.307 356.516 559.24C353.009 555.427 349.556 551.547 346.129 547.68Z" fill="#291F75"/>
<path d="M71.2493 564.133C80.5159 568.48 89.6226 573.173 98.6359 578.04C96.0493 582.28 94.1159 586.88 91.6093 591.187C82.7693 586.587 73.7826 582.28 64.9559 577.68C66.3959 572.893 69.2093 568.667 71.2493 564.133Z" fill="#291F75"/>
<path d="M379.409 577.893C387.476 572.92 395.849 568.373 404.543 564.587C406.596 569.173 408.983 573.613 410.876 578.267C402.236 582.733 393.476 586.973 384.676 591.12C383.169 586.613 381.409 582.2 379.409 577.893Z" fill="#291F75"/>
</svg>
